<?xml version="1.0" encoding="UTF-8"?>
<svg id="Camada_1" data-name="Camada 1" xmlns="http://www.w3.org/2000/svg" viewBox="0 0 143.43 144.03">
  <defs>
    <style>
      .cls-1 {
        fill: none;
      }

      .cls-1, .cls-2 {
        stroke: #000;
        stroke-miterlimit: 10;
        stroke-width: .15px;
      }
    </style>
  </defs>
  <g>
    <rect class="cls-1" x="69.67" y="72.86" width="35.82" height="17.91"/>
    <rect x="69.67" y="72.86" width="35.82" height="17.91"/>
  </g>
  <g>
    <path class="cls-1" d="M78.64,30.21c-.15.78-.23,1.59-.23,2.42s.08,1.64.23,2.43c.12.68.3,1.34.53,1.98,1.37,3.87,4.48,6.92,8.42,8.25v.7h-26.86v80.6h-.5c-1.2-4.13-4.38-7.44-8.46-8.88v-.08h-.25c-1.36-.45-2.82-.7-4.34-.7s-2.98.25-4.34.7h-.02c-4.19,1.4-7.47,4.75-8.69,8.96h-.27V19.13h53.73v.84c-3.89,1.31-6.98,4.31-8.38,8.11-.25.68-.44,1.4-.57,2.13Z"/>
    <path d="M78.64,30.21c-.15.78-.23,1.59-.23,2.42s.08,1.64.23,2.43c.12.68.3,1.34.53,1.98,1.37,3.87,4.48,6.92,8.42,8.25v.7h-26.86v80.6h-.5c-1.2-4.13-4.38-7.44-8.46-8.88v-.08h-.25c-1.36-.45-2.82-.7-4.34-.7s-2.98.25-4.34.7h-.02c-4.19,1.4-7.47,4.75-8.69,8.96h-.27V19.13h53.73v.84c-3.89,1.31-6.98,4.31-8.38,8.11-.25.68-.44,1.4-.57,2.13Z"/>
  </g>
  <path class="cls-2" d="M114.46,30.08v4.74c-.13.77-.34,1.51-.6,2.22-1.4,3.78-4.48,6.76-8.36,8.07-1.38.47-2.87.72-4.41.72s-2.94-.24-4.28-.68c-.09-.03-.18-.06-.27-.09-3.81-1.33-6.84-4.29-8.22-8.02-.36-.97-.61-2-.73-3.07v-3.04c.11-.99.33-1.94.65-2.85,1.32-3.75,4.28-6.75,8.05-8.15.09.03.17.06.25.08v-.17c1.05-.37,2.15-.61,3.3-.71h2.5c1.1.09,2.16.32,3.16.66,3.95,1.33,7.08,4.41,8.44,8.29.23.64.4,1.31.52,2Z"/>
</svg>